<?xml version="1.0" standalone="no"?>
<!DOCTYPE svg PUBLIC "-//W3C//DTD SVG 20010904//EN"
 "http://www.w3.org/TR/2001/REC-SVG-20010904/DTD/svg10.dtd">
<svg version="1.0" xmlns="http://www.w3.org/2000/svg"
 width="625.000000pt" height="625.000000pt" viewBox="0 0 625.000000 625.000000"
 preserveAspectRatio="xMidYMid meet">

<g transform="translate(0.000000,625.000000) scale(0.100000,-0.100000)"
fill="#000000" stroke="none">
<path d="M2905 5829 c-38 -4 -101 -13 -140 -19 -67 -10 -99 -17 -202 -41 -285
-67 -570 -194 -843 -377 -172 -115 -210 -147 -210 -175 0 -10 26 -49 58 -87
31 -37 86 -103 122 -146 143 -173 429 -495 504 -566 15 -16 32 -28 37 -28 5 0
36 25 70 56 116 106 339 233 474 269 114 30 247 55 297 55 39 0 53 5 72 25 23
25 29 38 86 180 35 88 145 296 217 408 56 88 172 242 231 308 24 27 42 56 40
66 -10 52 -564 102 -813 72z"/>
<path d="M3957 5497 c-93 -101 -123 -140 -216 -280 -125 -187 -251 -423 -251
-471 0 -25 38 -48 135 -82 109 -39 317 -183 398 -275 69 -79 73 -71 82 128 7
154 -7 730 -24 968 -8 124 -22 125 -124 12z"/>
<path d="M4393 5428 c3 -35 12 -137 21 -228 18 -191 20 -425 6 -660 -11 -192
-20 -261 -61 -483 -9 -45 -10 -74 -3 -84 5 -8 61 -42 124 -76 63 -33 155 -84
203 -114 49 -29 90 -53 92 -53 7 0 193 -118 320 -203 220 -148 444 -316 535
-403 25 -23 54 -44 65 -46 19 -3 20 3 23 91 6 211 -54 571 -142 841 -138 426
-340 756 -656 1070 -86 85 -193 184 -239 220 -110 87 -261 190 -279 190 -11 0
-13 -13 -9 -62z"/>
<path d="M1193 4913 c-18 -6 -138 -169 -221 -299 -200 -315 -325 -658 -388
-1064 -38 -247 -41 -560 -8 -778 8 -52 14 -114 14 -137 0 -44 20 -82 37 -72 6
4 21 33 34 64 55 137 219 407 369 609 125 169 301 359 487 526 109 98 347 272
436 317 15 8 27 22 27 31 0 9 -66 82 -147 162 -224 220 -524 529 -563 581 -39
50 -59 66 -77 60z"/>
<path d="M1639 3463 c-292 -298 -517 -585 -679 -868 -84 -145 -209 -397 -216
-435 -8 -37 13 -104 74 -235 127 -273 344 -581 543 -770 136 -130 446 -359
465 -344 6 5 8 32 3 76 -29 253 -31 312 -26 622 4 211 11 361 21 426 30 205
36 241 46 295 24 130 24 132 -14 236 -39 106 -87 293 -105 411 -6 39 -11 156
-11 260 0 178 6 234 40 393 5 25 9 48 10 53 1 25 -41 -8 -151 -120z"/>
<path d="M4485 3571 c-3 -5 6 -57 20 -114 23 -95 25 -125 25 -313 0 -258 -18
-385 -85 -594 -28 -89 -37 -110 -91 -225 -76 -163 -210 -345 -347 -470 -146
-134 -377 -269 -512 -299 -38 -8 -88 -22 -110 -30 l-40 -15 57 0 c31 -1 79 3
105 8 26 5 84 15 128 21 117 17 392 78 500 111 444 136 869 348 1285 639 171
120 183 132 169 167 -18 49 -252 349 -396 509 -65 72 -226 235 -297 299 -90
82 -344 283 -386 305 -12 6 -21 6 -25 1z"/>
<path d="M2146 1935 c-3 -9 -11 -139 -18 -289 -16 -372 8 -926 42 -960 21 -21
252 243 356 404 89 140 228 427 219 452 -3 7 -40 29 -83 48 -163 72 -289 157
-423 287 -42 40 -79 73 -82 73 -3 0 -7 -7 -11 -15z"/>
<path d="M5225 1632 c-10 -9 -183 -67 -400 -135 -128 -41 -392 -106 -545 -136
-167 -32 -214 -40 -305 -50 -55 -7 -133 -16 -173 -21 -115 -16 -484 -12 -598
5 -54 8 -118 15 -141 15 l-42 0 -69 -137 c-99 -198 -256 -439 -378 -580 -61
-69 -62 -89 -6 -98 21 -3 71 -12 112 -21 354 -72 817 -52 1150 51 131 41 130
40 220 75 398 154 790 447 1072 801 81 103 168 223 168 233 0 9 -55 7 -65 -2z"/>
</g>
</svg>
